PathFileType	4	(X/Y/Z)	\\147.46.242.158\로컬 디스크 (e)\MOCAP Data\Iguana Capture\iguana\Project 2\Capture day 6 after broken\Session 1\Take09.trc
DataRate	CameraRate	NumFrames	NumMarkers	Units	OrigDataRate	OrigDataStartFrame	OrigNumFrames
120.0	120.0	11	23	mm	120.0	1	2476
Frame#	Time	ana:head1			ana:head2			ana:bone1			ana:bone2			ana:bone3			ana:tail1			ana:tail2			ana:tail3			ana:tail4			ana:Rforefoot1			ana:Rforefoot2			ana:Rforefoot3			ana:Lforefoot1			ana:Lforefoot2			ana:Lforefoot3			ana:RhindLeg1			ana:RhindLeg2			ana:RhindLeg3			ana:RhindLeg4			ana:LhindLeg1			ana:LhindLeg2			ana:LhindLeg3			ana:LhindLeg4			
		X1	Y1	Z1	X2	Y2	Z2	X3	Y3	Z3	X4	Y4	Z4	X5	Y5	Z5	X6	Y6	Z6	X7	Y7	Z7	X8	Y8	Z8	X9	Y9	Z9	X10	Y10	Z10	X11	Y11	Z11	X12	Y12	Z12	X13	Y13	Z13	X14	Y14	Z14	X15	Y15	Z15	X16	Y16	Z16	X17	Y17	Z17	X18	Y18	Z18	X19	Y19	Z19	X20	Y20	Z20	X21	Y21	Z21	X22	Y22	Z22	X23	Y23	Z23	

1126	9.375	-338.42465	-168.09819	93.02237	-342.74850	-178.29306	94.16560	-348.21765	-200.68387	86.93016	-346.44592	-227.90294	75.46546	-356.31964	-257.86368	61.05561	-379.25824	-275.97675	52.61729	-402.37292	-307.29993	49.90128	-416.67334	-349.69128	45.06559	-415.92368	-376.00128	44.03242	-332.23935	-195.92554	77.57391	-323.81470	-206.41924	78.41767	-310.93552	-197.85428	67.44336	-351.67636	-187.88766	65.35109	-360.98492	-190.51927	54.48470	-348.78113	-178.74196	57.98164	-352.30365	-266.41144	56.23795	-344.80469	-277.05957	46.81425	-361.51627	-282.38867	36.87196	-367.46069	-291.75055	28.93771	-360.70145	-245.64117	52.94093	-361.40408	-228.32375	49.41677	-366.14484	-232.12759	31.14960	-361.60364	-219.46515	28.97467	
1127	9.383	-328.80392	-164.04680	96.04156	-331.84756	-173.38150	95.76772	-338.86154	-195.27226	87.68940	-339.70084	-222.97804	76.34794	-345.27304	-251.77779	59.75285	-365.30142	-272.89883	49.46827	-390.92239	-301.00897	46.09368	-421.96875	-322.95929	49.44994	-443.29526	-349.02243	53.27804	-321.12622	-191.25928	79.32482	-314.42593	-203.99425	79.66331	-299.38248	-196.22679	70.02721	-339.23395	-181.11266	65.83448	-347.40060	-181.21466	53.67594	-333.20950	-172.35332	58.85023	-336.49722	-257.55280	53.04381	-326.31091	-269.37317	52.02659	-338.10934	-277.61368	37.65841	-335.61978	-287.60516	30.97930	-350.15860	-240.59996	50.65989	-348.75262	-222.73892	46.60514	-347.52673	-216.08141	28.73199	-340.70871	-204.74123	30.81024	
1128	9.392	-317.05557	-158.91586	97.33257	-321.10815	-168.89569	97.02438	-327.61960	-189.37248	86.55666	-329.81897	-217.81126	75.66338	-334.31894	-247.28117	59.68332	-352.48083	-268.76135	48.22154	-381.31580	-293.58701	44.28637	-417.99609	-302.62543	48.05096	-451.21606	-309.76923	50.09332	-311.22574	-186.83325	78.89104	-306.02539	-201.15919	81.39965	-288.29422	-195.13342	73.92802	-327.04218	-175.43344	66.10156	-331.64188	-173.25317	52.70560	-317.54810	-165.63483	59.17024	-324.00186	-252.34320	54.41920	-310.10468	-259.66495	56.76309	-312.33444	-271.56107	40.06377	-302.98227	-277.97177	36.44944	-339.46085	-236.49944	48.67904	-337.95309	-218.40700	42.19902	-329.25662	-197.15916	21.25632	-329.60101	-199.76505	20.98727	
1129	9.400	-306.43945	-154.15044	97.40523	-310.09000	-164.25894	97.24736	-315.00702	-185.29485	86.78478	-317.10657	-213.44017	75.10117	-322.04074	-241.16803	57.65127	-340.50226	-262.75787	47.67255	-375.85764	-282.77066	43.48681	-412.90317	-280.08432	40.48034	-445.41727	-271.81198	37.59925	-300.10089	-181.09773	77.73020	-296.74484	-197.00230	80.78750	-278.03116	-192.68114	74.60018	-316.51602	-170.97147	66.69027	-319.95499	-168.54832	51.46621	-306.30353	-160.46446	57.92654	-310.37265	-245.20857	53.04348	-295.54691	-248.50237	58.28265	-287.72430	-264.45868	47.11694	-275.94635	-265.25235	48.25291	-327.62167	-231.97491	46.84608	-328.76581	-215.53865	36.40556	-331.47360	-211.22913	17.78867	-325.80762	-200.40004	9.89379	
1130	9.408	-295.83218	-150.43335	97.70544	-298.96353	-160.42688	97.88729	-304.25250	-182.62929	87.55182	-304.66739	-208.66689	73.63844	-311.40381	-236.14774	56.04167	-329.92352	-257.07050	46.71476	-368.29791	-269.20093	40.32568	-402.73737	-255.69586	31.45001	-430.33279	-238.74980	21.48583	-287.61255	-176.66557	76.50650	-282.93723	-192.18959	78.32237	-265.04675	-186.28435	70.90163	-305.12531	-166.53076	65.79054	-311.25333	-164.51003	52.79213	-297.79810	-156.30879	54.59944	-299.67413	-240.35301	53.71103	-284.91028	-240.76891	59.74489	-268.36133	-253.08156	54.33901	-256.77933	-249.00377	57.37548	-316.64038	-227.66655	44.51801	-320.49246	-213.39462	32.89091	-326.24216	-212.11693	14.63579	-323.72250	-200.75885	7.56506	
1131	9.417	-280.97287	-145.76187	96.43025	-286.24951	-156.34492	96.72732	-291.94403	-177.36774	86.15392	-294.04910	-204.09602	73.15144	-301.28940	-231.37271	55.39767	-319.87912	-252.63481	46.40841	-357.15521	-257.58948	36.11367	-385.55496	-234.98814	22.38776	-408.78088	-213.95467	12.30752	-273.69638	-172.55299	74.18961	-266.26492	-186.67950	74.45687	-251.56888	-178.31561	65.44485	-291.96631	-162.05731	64.74659	-298.71109	-159.89250	52.33434	-286.15604	-149.10307	54.56519	-289.14795	-235.00558	54.39682	-275.02728	-231.73944	60.69339	-256.00589	-240.40425	58.59306	-245.26305	-233.93643	61.92165	-306.52567	-223.72537	43.86274	-313.00085	-210.71106	32.58163	-324.31058	-211.19366	15.87133	-322.12244	-199.79953	8.08478	
1132	9.425	-266.50610	-142.18159	96.72859	-270.06754	-151.29506	96.14886	-278.15195	-173.73192	85.51869	-283.20248	-199.03043	73.46423	-291.27618	-226.24126	55.63659	-308.12628	-249.18536	46.16019	-344.34494	-251.23862	33.04369	-368.55978	-223.39832	21.35559	-389.69925	-199.55916	12.55123	-259.55338	-167.22746	72.98475	-250.63931	-181.82687	71.48466	-238.13094	-171.90077	60.94962	-277.40509	-157.19464	65.17066	-284.07458	-154.16388	52.54894	-271.57196	-145.41731	55.38658	-279.80984	-229.79927	54.98565	-266.25934	-224.37215	62.45504	-246.88861	-231.36497	60.01301	-235.51280	-223.21872	62.61615	-296.23532	-219.25757	43.65049	-306.92273	-210.77036	32.62486	-320.84073	-210.11127	18.10404	-321.60321	-198.86662	9.16790	
1133	9.433	-250.64743	-138.88284	97.97141	-254.80476	-148.29251	97.25784	-261.99719	-170.28683	87.36987	-269.00943	-193.72903	74.14404	-281.14383	-220.97147	56.08895	-296.32602	-245.22266	48.05770	-332.29144	-249.97008	36.09267	-355.64569	-221.52951	24.40196	-368.28601	-192.15698	13.67486	-245.00874	-166.84381	74.97476	-237.00706	-179.73155	72.03510	-223.24695	-170.55682	61.07690	-261.70612	-153.05206	67.04208	-268.51651	-148.05656	54.90152	-254.57320	-141.26749	56.96975	-270.24875	-224.31116	55.39299	-256.14520	-219.52946	62.53011	-235.92268	-224.68227	59.24974	-224.42743	-217.49377	60.80060	-287.02774	-214.60966	45.16811	-298.58606	-208.12714	33.45684	-313.78165	-206.56319	20.58675	-319.04807	-196.94987	10.60659	
1134	9.442	-232.93654	-135.73790	98.90375	-236.95142	-144.57120	98.65220	-245.95148	-165.61128	88.97363	-255.59511	-189.53860	75.45068	-270.33310	-214.37129	58.23995	-284.70798	-240.43558	51.41651	-321.71216	-252.34331	43.53663	-344.50812	-224.60530	29.48250	-346.81485	-193.06026	15.31654	-228.72057	-164.07784	75.95126	-221.35323	-177.88191	73.94724	-207.98245	-172.98758	62.98850	-245.23865	-148.91486	69.44297	-252.61362	-142.42091	58.63548	-238.45799	-136.19618	60.67529	-259.93854	-218.32979	55.54526	-245.00238	-215.51585	60.62594	-225.42003	-220.97855	54.61614	-211.75677	-213.76381	53.62664	-278.62360	-209.28273	47.51218	-290.33490	-203.35988	36.17643	-305.59613	-200.63181	23.60602	-314.07443	-194.23546	13.50165	
1135	9.450	-215.03456	-133.00964	99.74354	-222.25818	-142.80319	100.52957	-228.96964	-162.20276	89.99014	-241.80908	-185.33179	76.78789	-259.74472	-207.58217	60.17201	-273.66885	-234.28926	54.73728	-308.39957	-253.98755	48.99179	-335.63760	-231.55746	33.80935	-331.96036	-200.20573	18.11874	-214.57442	-163.63234	78.18433	-208.60867	-176.55809	75.46346	-191.48633	-173.59261	66.29575	-228.46838	-144.69273	71.27762	-234.97758	-137.19650	60.58311	-220.77231	-131.58052	63.10572	-248.59447	-211.32773	54.81512	-233.30031	-211.91412	57.23120	-215.24190	-217.87109	47.26778	-204.76643	-212.98062	37.86714	-267.86850	-201.03459	50.11559	-281.46677	-194.34261	40.78888	-295.98416	-193.45836	27.87004	-305.19083	-189.36472	16.77268	
1136	9.458	-198.80116	-129.37970	100.37548	-204.91077	-138.99870	100.18944	-212.96161	-158.43364	89.34435	-226.82936	-181.61734	77.35198	-247.82646	-202.04874	60.89404	-263.79782	-226.89751	56.36672	-294.66986	-253.57655	53.11296	-327.36343	-241.01825	36.92302	-329.98932	-210.09125	20.09409	-199.16563	-159.95160	78.71743	-195.07091	-173.94841	76.85400	-176.83928	-173.11725	69.89455	-211.76308	-140.90205	71.63468	-215.75365	-132.00742	60.65140	-201.03236	-129.26991	61.72337	-238.70370	-207.46785	53.04830	-223.16444	-210.83511	47.85990	-217.80780	-220.19899	29.06769	-208.26564	-214.55856	17.62838	-255.39651	-192.97881	53.31260	-268.14053	-182.45410	46.98620	-282.03366	-185.80798	33.65697	-290.29791	-181.01772	23.37276	
